<svg t="1606840528178" class="icon" viewBox="0 0 1024 1024" version="1.1" xmlns="http://www.w3.org/2000/svg" p-id="1190"
     width="200" height="200">
    <path d="M935.162 137.608c-56.73-58.51-132.147-90.748-212.36-90.748-75.47 0-147.87 28.884-203.848 81.402l-6.978 6.488-6.978-6.536C449.02 75.744 376.642 46.86 301.176 46.86c-80.212 0-155.616 32.258-212.36 90.75C31.77 196.52 0.347 274.731 0.347 357.968c0 83.26 31.424 161.47 88.47 220.408L449.53 950.44c16.699 17.208 38.885 26.699 62.467 26.699 23.586 0 45.773-9.491 62.472-26.7 0 0 356.738-367.969 360.692-372.063 57.068-58.91 88.491-137.123 88.491-220.408 0.001-83.215-31.444-161.429-88.49-220.36z m-31.865 408.186L542.584 917.857c-8.139 8.443-19.025 13.095-30.609 13.095-11.582 0-22.442-4.632-30.608-13.116l-360.686-372.02C72.118 495.718 45.374 429.041 45.374 357.99c0-71 26.744-137.724 75.307-187.771 48.28-49.797 112.444-77.217 180.702-77.217 64.095 0 125.636 24.63 173.336 69.307l37.256 34.93 37.285-34.93c47.672-44.698 109.234-69.307 173.33-69.307 68.284 0 132.449 27.445 180.708 77.217 48.563 50.047 75.306 116.772 75.306 187.771 0 71.031-26.744 137.708-75.307 187.804zM270.429 186.4l-2.49 0.026-0.043 0.048c-70.797 1.368-127.982 59.395-127.982 130.47 0 11.86 9.65 21.51 21.51 21.51 11.86 0 21.516-9.65 21.516-21.532 0-48.238 39.258-87.517 87.512-87.517 11.865 0 21.516-9.651 21.516-21.516-0.001-11.86-9.679-21.489-21.539-21.489z m0 0"
          p-id="1191"></path>
</svg>